<?xml version="1.0" standalone="no"?>
<!DOCTYPE svg PUBLIC "-//W3C//DTD SVG 20010904//EN"
 "http://www.w3.org/TR/2001/REC-SVG-20010904/DTD/svg10.dtd">
<svg version="1.0" xmlns="http://www.w3.org/2000/svg"
 width="191.000000pt" height="89.000000pt" viewBox="0 0 191.000000 89.000000"
 preserveAspectRatio="xMidYMid meet">

<g transform="translate(0.000000,89.000000) scale(0.100000,-0.100000)"
fill="#000000" stroke="none">
<path d="M403 635 c-3 -9 -3 -18 0 -21 9 -9 27 6 27 22 0 19 -19 18 -27 -1z"/>
<path d="M357 552 c-10 -10 -17 -25 -17 -33 1 -8 8 -2 16 14 16 29 34 36 34
12 0 -8 -9 -36 -19 -64 -17 -42 -18 -51 -6 -67 11 -15 18 -17 31 -8 24 14 50
54 35 54 -6 0 -11 -6 -11 -14 0 -16 -28 -41 -37 -33 -3 4 4 34 16 67 18 48 20
64 11 76 -17 19 -34 18 -53 -4z"/>
<path d="M602 544 c-12 -8 -22 -20 -22 -27 0 -8 3 -8 12 1 7 7 23 12 36 12 26
0 25 -9 -8 -87 -10 -24 -15 -45 -10 -48 13 -8 27 18 40 78 10 45 17 57 32 57
17 0 18 -6 13 -57 -6 -60 5 -97 24 -78 7 7 8 22 1 45 -15 52 -4 88 27 92 15 2
28 9 31 16 6 19 -147 16 -176 -4z"/>
<path d="M1606 544 c-11 -7 -34 -17 -53 -20 -18 -3 -33 -11 -33 -16 0 -6 14
-8 35 -4 l36 7 -3 -143 -3 -143 -32 -3 c-18 -2 -33 -7 -33 -13 0 -5 41 -9 90
-9 53 0 90 4 90 10 0 6 -10 10 -22 10 -45 0 -47 8 -50 177 -3 157 -3 161 -22
147z"/>
<path d="M497 514 c-14 -15 -6 -34 14 -34 14 0 19 5 17 17 -3 18 -20 27 -31
17z"/>
<path d="M1130 430 l0 -80 -80 0 c-47 0 -80 -4 -80 -10 0 -6 33 -10 80 -10
l80 0 0 -85 c0 -50 4 -85 10 -85 6 0 10 35 10 85 l0 85 86 0 c54 0 83 4 79 10
-3 6 -42 10 -86 10 l-79 0 0 80 c0 47 -4 80 -10 80 -6 0 -10 -33 -10 -80z"/>
<path d="M185 426 c-41 -18 -85 -71 -87 -104 -4 -79 16 -118 66 -127 50 -10
155 40 132 62 -3 4 -17 -4 -30 -16 -28 -27 -90 -39 -111 -21 -9 8 -15 29 -15
56 0 41 2 44 28 44 47 0 101 20 117 43 19 28 19 33 -5 57 -23 23 -52 25 -95 6z
m83 -37 c4 -30 -29 -49 -83 -49 -42 0 -43 9 -9 50 21 25 33 30 58 28 25 -2 32
-8 34 -29z"/>
</g>
</svg>
